<svg xmlns="http://www.w3.org/2000/svg" width="200" height="200" viewBox="0 0 200 200">
  <rect width="200" height="200" fill="#FFF0F0" rx="20"/>
  <circle cx="100" cy="75" r="40" fill="#FFE0BD"/>
  <path d="M55 55 Q60 20 100 25 Q140 20 145 55 L150 90 Q140 85 130 90 L70 90 Q60 85 50 90Z" fill="#6B3F1F"/>
  <path d="M60 75 Q55 85 58 90" fill="#6B3F1F"/>
  <path d="M140 75 Q145 85 142 90" fill="#6B3F1F"/>
  <path d="M85 76 Q90 72 95 76" stroke="#333" fill="none" stroke-width="2"/>
  <path d="M105 76 Q110 72 115 76" stroke="#333" fill="none" stroke-width="2"/>
  <path d="M93 90 Q100 96 107 90" stroke="#333" fill="none" stroke-width="1.5"/>
  <rect x="78" y="115" width="44" height="40" rx="5" fill="#CC3333"/>
  <path d="M95 115 L100 125 L105 115" fill="#333"/>
  <rect x="82" y="155" width="14" height="25" rx="3" fill="#4A4A5A"/>
  <rect x="104" y="155" width="14" height="25" rx="3" fill="#4A4A5A"/>
  <text x="100" y="15" text-anchor="middle" font-size="10" fill="#888">ことね</text>
</svg>
